# xmcd
#
# Track frame offsets:
#	225
#	16074
#	31852
#	43078
#	63543
#	75356
#	89281
#	102696
#	115422
#	126219
#	139227
#
# Disc length: 2060 seconds
#
# Revision: 1
# Processed by: cddbd v1.5.1PL2 Copyright (c) Steve Scherf et al.
# Submitted via: audiograbber 1.83.01
#
DISCID=9008090b
DTITLE=Spencers - Did You See The Angels
DYEAR=1997
DGENRE=Southern Gospel
TTITLE0=Chances Are
TTITLE1=Take Me Back
TTITLE2=I'm Proud Of You Christians
TTITLE3=I Just Came To Place Some Flowers
TTITLE4=Covered By The Blood
TTITLE5=Did You See The Angels
TTITLE6=We Have Come To Worship
TTITLE7=Ten Thousand Angels
TTITLE8=Touched By The Power Of God
TTITLE9=Wait A Longer Please Jesus
TTITLE10=Amish Country Jubilee
EXTD=
EXTT0=
EXTT1=
EXTT2=
EXTT3=
EXTT4=
EXTT5=
EXTT6=
EXTT7=
EXTT8=
EXTT9=
EXTT10=
PLAYORDER=
